<?xml version="1.0" standalone="no"?>
<!DOCTYPE svg PUBLIC "-//W3C//DTD SVG 20010904//EN"
 "http://www.w3.org/TR/2001/REC-SVG-20010904/DTD/svg10.dtd">
<svg version="1.0" xmlns="http://www.w3.org/2000/svg"
 width="991.000000pt" height="1280.000000pt" viewBox="0 0 991.000000 1280.000000"
 preserveAspectRatio="xMidYMid meet">
<g transform="translate(0.000000,1280.000000) scale(0.100000,-0.100000)"
fill="#000000" stroke="none">
<path d="M3005 12789 c-16 -5 -77 -20 -135 -34 -127 -30 -217 -72 -333 -156
-153 -109 -233 -218 -244 -332 -5 -55 -3 -71 13 -94 17 -25 19 -48 19 -223 l0
-196 41 -84 c36 -72 40 -88 32 -114 -27 -83 -35 -132 -25 -158 5 -16 13 -28
18 -28 9 0 149 -135 149 -144 0 -2 7 -40 15 -83 8 -43 15 -98 16 -123 1 -73
20 -122 58 -147 45 -30 95 -29 206 4 67 20 112 27 177 27 86 1 87 1 123 -34
43 -42 80 -116 100 -205 22 -92 13 -106 -110 -180 -138 -82 -190 -122 -273
-209 -157 -166 -230 -300 -293 -542 -23 -87 -46 -168 -51 -178 -6 -11 -39 -50
-74 -87 -35 -38 -64 -74 -65 -81 -3 -85 -7 -107 -26 -133 -11 -17 -33 -55 -48
-85 -41 -82 -114 -198 -129 -203 -7 -3 -35 3 -62 13 -27 10 -94 35 -149 54
-364 132 -382 143 -580 347 -186 191 -275 298 -275 330 0 15 9 71 21 125 11
55 24 162 28 239 8 144 23 200 65 234 23 19 20 68 -3 81 -53 28 -156 -2 -204
-59 -25 -30 -47 -87 -47 -124 0 -26 -28 -32 -52 -11 -37 33 -108 151 -152 254
-83 190 -182 330 -234 330 -24 0 -49 -27 -63 -68 -14 -40 -32 -41 -60 -3 -31
42 -70 56 -106 39 -47 -22 -42 -60 21 -187 31 -61 56 -116 56 -122 0 -26 -25
2 -69 75 -55 94 -88 124 -120 107 -45 -25 -20 -143 57 -264 135 -215 148 -241
134 -273 -23 -49 -71 -27 -204 94 -81 74 -109 84 -144 51 -32 -30 -30 -45 14
-104 45 -60 137 -135 215 -177 70 -38 98 -70 222 -253 43 -63 119 -152 205
-240 114 -117 154 -167 245 -305 242 -368 651 -813 948 -1033 51 -37 115 -85
142 -107 59 -47 108 -64 153 -51 78 23 217 145 557 491 165 168 343 348 396
400 53 52 108 114 123 138 14 23 30 42 35 42 13 0 149 -220 221 -355 34 -66
71 -132 81 -146 10 -14 29 -54 42 -90 44 -117 184 -383 301 -574 47 -77 62
-126 91 -315 28 -175 31 -228 12 -254 -16 -22 -234 -90 -359 -111 -113 -20
-264 -68 -463 -148 -82 -32 -226 -90 -320 -127 -585 -233 -874 -401 -990 -575
-61 -93 -78 -154 -78 -280 1 -136 28 -238 108 -401 119 -245 646 -994 1084
-1539 127 -159 173 -224 220 -315 67 -131 161 -344 161 -365 0 -28 -20 -15
-54 37 -54 84 -182 195 -202 175 -14 -14 8 -57 36 -72 49 -25 170 -230 170
-287 0 -44 -28 -84 -76 -109 -50 -25 -73 -23 -194 20 -81 29 -198 53 -212 45
-3 -2 -4 -12 -1 -22 3 -14 30 -26 95 -46 50 -15 114 -39 142 -53 35 -18 66
-26 99 -25 60 1 60 -10 7 -99 -28 -45 -44 -86 -51 -129 -12 -76 -28 -109 -82
-167 -70 -76 -261 -180 -410 -223 -122 -35 -147 -57 -147 -126 0 -55 20 -95
63 -128 43 -33 107 -45 290 -53 147 -6 210 1 333 38 17 5 38 9 47 9 9 0 34 9
55 20 21 11 71 29 110 40 39 11 95 30 124 43 29 13 100 38 158 56 124 38 342
116 383 138 16 8 86 34 155 58 214 74 191 63 316 149 56 39 114 115 102 135
-4 5 -37 50 -74 100 -38 50 -90 130 -117 177 -55 99 -215 290 -269 322 -21 12
-54 50 -82 94 -26 40 -70 107 -98 148 -27 41 -75 122 -106 180 -72 132 -141
255 -171 300 -13 19 -82 152 -154 295 -138 274 -129 249 -196 545 -40 180
-168 426 -321 616 -43 53 -75 101 -70 106 4 4 42 0 83 -11 111 -28 267 -49
424 -57 223 -10 673 19 1075 70 74 9 109 10 118 3 8 -6 25 -33 38 -59 33 -65
178 -280 262 -387 90 -117 425 -518 709 -848 289 -338 273 -318 418 -557 124
-205 206 -308 292 -367 24 -17 92 -48 149 -69 122 -44 148 -61 303 -195 220
-192 607 -511 954 -788 375 -300 500 -413 647 -587 101 -119 210 -260 210
-272 0 -5 -18 -8 -39 -8 -55 0 -101 -39 -101 -85 0 -28 8 -41 51 -77 28 -24
62 -62 76 -86 14 -23 38 -49 53 -57 44 -23 58 -55 70 -166 14 -131 33 -198 65
-233 26 -29 33 -29 120 -14 17 2 21 -4 25 -42 5 -41 17 -67 58 -134 23 -37 10
-216 -22 -306 -50 -138 -76 -232 -76 -272 0 -79 57 -138 134 -138 48 0 101 38
232 166 76 75 98 105 145 194 118 226 228 563 269 821 10 67 24 116 94 342 69
224 95 422 70 532 -11 47 -24 52 -144 54 -41 1 -95 6 -120 12 -25 6 -101 14
-170 18 -69 4 -168 18 -220 30 -52 11 -106 24 -120 27 -15 3 -138 118 -308
287 -212 210 -301 306 -350 377 -513 734 -748 971 -1222 1234 -63 34 -79 48
-97 86 -12 25 -74 153 -138 285 -130 268 -242 480 -416 787 -65 114 -131 235
-147 270 -16 35 -53 104 -82 153 -29 50 -58 99 -64 110 -7 11 -31 49 -54 84
-23 35 -42 74 -42 86 0 11 9 61 20 110 68 314 97 583 80 741 -23 213 -87 355
-295 649 -293 413 -371 552 -454 800 -66 200 -159 594 -181 770 -7 50 -18 117
-26 150 -28 122 -37 444 -25 945 9 401 13 477 26 486 8 6 66 16 129 23 63 7
157 21 208 32 51 11 167 31 258 44 205 30 297 54 397 100 l78 37 120 -6 c142
-6 224 -26 397 -95 168 -67 362 -106 597 -121 96 -6 213 -18 260 -26 116 -20
306 -85 372 -126 30 -19 77 -47 105 -62 29 -15 56 -38 62 -49 89 -193 152
-273 267 -336 33 -19 92 -66 131 -106 77 -78 112 -95 149 -71 53 35 35 150
-36 226 -32 34 -38 46 -26 48 25 5 72 -35 168 -145 53 -61 100 -105 115 -109
32 -8 68 22 61 51 -17 67 -63 164 -97 203 -38 43 -51 72 -31 72 5 0 58 -38
117 -85 123 -95 158 -109 186 -75 10 12 18 38 18 57 0 31 -11 47 -85 122 -47
48 -85 90 -85 94 0 14 27 6 68 -23 41 -27 61 -29 88 -8 11 8 -2 78 -28 143
-18 45 -92 138 -131 165 -20 13 -42 39 -51 56 -8 18 -23 34 -33 37 -122 33
-217 62 -258 79 -27 11 -96 35 -152 53 -56 18 -115 42 -130 53 -69 49 -132 72
-192 72 -43 0 -84 9 -143 31 -46 17 -112 42 -147 55 -35 14 -120 51 -190 83
-69 32 -166 71 -215 86 -149 45 -509 166 -537 181 -44 22 -168 53 -294 74 -96
15 -148 18 -260 13 -167 -6 -306 10 -535 62 -196 45 -277 51 -470 34 -189 -16
-253 -14 -350 10 -124 32 -228 44 -369 43 -168 -2 -219 -12 -353 -73 -161 -73
-380 -125 -426 -100 -26 14 -85 14 -134 1 -51 -14 -68 -3 -103 66 -25 48 -30
74 -36 168 -4 61 -10 118 -13 126 -3 8 -12 101 -20 205 -17 217 -24 244 -117
435 -52 106 -72 135 -128 190 -37 36 -93 80 -124 99 -102 60 -303 96 -392 70z
m-2535 -2144 c0 -8 -4 -15 -9 -15 -13 0 -22 16 -14 24 11 11 23 6 23 -9z m30
-72 c0 -13 -3 -13 -15 -3 -8 7 -15 19 -15 27 0 13 3 13 15 3 8 -7 15 -19 15
-27z m60 -93 c0 -5 -4 -10 -10 -10 -5 0 -10 5 -10 10 0 6 5 10 10 10 6 0 10
-4 10 -10z m20 -45 c0 -8 -4 -15 -10 -15 -5 0 -10 7 -10 15 0 8 5 15 10 15 6
0 10 -7 10 -15z m8083 -8923 c37 -32 17 -41 -40 -17 -29 12 -33 18 -23 29 12
16 35 12 63 -12z m232 -464 c27 -59 31 -83 13 -94 -16 -10 -35 21 -47 78 -10
45 -8 68 5 68 3 0 16 -24 29 -52z"/>
</g>
</svg>
